<svg width="64" height="64" viewBox="0 0 64 64" fill="none" xmlns="http://www.w3.org/2000/svg">
<path fill-rule="evenodd" clip-rule="evenodd" d="M32.094 34.9178L51.4697 49.3843H12.5302L31.9059 34.9178L32 34.9875L32.094 34.9178Z" fill="#F7F5ED"/>
<path fill-rule="evenodd" clip-rule="evenodd" d="M12.5306 49.6515L32.0208 35.5015L31.9149 35.4259L31.9034 35.434L31.8661 35.4077C30.064 34.1385 28.2697 32.8493 26.4796 31.5462C26.4794 31.5461 26.4793 31.546 26.4791 31.5458C21.8219 28.1554 17.1935 24.6705 12.5302 21.1978V49.6518L12.5306 49.6515L12.5306 49.6515Z" fill="#F7F5ED"/>
<path fill-rule="evenodd" clip-rule="evenodd" d="M51.4697 49.3844H52.8374C54.5768 49.3844 55.9999 47.9613 55.9999 46.2218V17.4097C55.9999 15.6703 54.5768 14.2471 52.8374 14.2471H51.4697V49.3844V49.3844Z" fill="#E75A4D"/>
<path fill-rule="evenodd" clip-rule="evenodd" d="M12.5302 49.6519H11.1625C9.4231 49.6519 7.99994 48.2288 7.99994 46.4893V17.4098C7.99994 15.6704 9.42306 14.2473 11.1625 14.2473H12.5302V49.6519V49.6519Z" fill="#E75A4D"/>
<path fill-rule="evenodd" clip-rule="evenodd" d="M32.094 28.7138L51.4697 14.2471H12.5302L31.9059 28.7138L32 28.6441L32.094 28.7138Z" fill="#F7F5ED"/>
<path fill-rule="evenodd" clip-rule="evenodd" d="M32.0209 35.5015L51.4698 49.3844V21.1978C48.2523 23.5939 45.0513 25.9958 41.846 28.3685C38.8119 30.6144 35.774 32.8341 32.7145 34.998L32.7136 34.9986L32.0209 35.5015L32.0209 35.5015Z" fill="#B7B6AD"/>
<path d="M32.1916 35.5197L12.6035 49.7528L12.457 49.5506L32.0453 35.3175L32.1916 35.5197Z" fill="#B7B6AD"/>
<path fill-rule="evenodd" clip-rule="evenodd" d="M32.0209 35.5015C24.6367 31.103 15.2165 23.1528 8.00003 17.8412L10.1352 14.4943L12.4679 14.3035L12.5303 14.2472L31.906 28.7138L32 28.6441L32.0941 28.7138L51.4698 14.2472L51.5322 14.3035L53.8649 14.4943L56 17.8412C48.195 23.586 40.048 30.234 32.0209 35.5015H32.0209Z" fill="#E75A4D"/>
</svg>
