<svg width="64" height="64" viewBox="0 0 64 64" fill="none" xmlns="http://www.w3.org/2000/svg">
<path fill-rule="evenodd" clip-rule="evenodd" d="M31.998 0.666496C14.328 0.666496 0 15.0495 0 32.7955C0 46.9875 9.168 59.029 21.886 63.278C23.486 63.573 24.07 62.581 24.07 61.73C24.07 60.967 24.042 58.947 24.026 56.2665C15.124 58.208 13.246 51.9595 13.246 51.9595C11.792 48.249 9.694 47.261 9.694 47.261C6.788 45.267 9.914 45.3075 9.914 45.3075C13.124 45.5345 14.814 48.6185 14.814 48.6185C17.67 53.528 22.304 52.1105 24.128 51.287C24.418 49.211 25.246 47.795 26.16 46.992C19.054 46.181 11.584 43.426 11.584 31.1155C11.584 27.6075 12.83 24.7405 14.878 22.4935C14.548 21.6805 13.45 18.4155 15.19 13.992C15.19 13.992 17.878 13.1285 23.99 17.285C26.544 16.572 29.28 16.217 32.002 16.2025C34.72 16.2165 37.458 16.572 40.014 17.285C46.122 13.1285 48.804 13.992 48.804 13.992C50.55 18.4155 49.452 21.6805 49.122 22.4935C51.174 24.7405 52.412 27.6075 52.412 31.1155C52.412 43.456 44.93 46.173 37.802 46.968C38.95 47.96 39.974 49.9195 39.974 52.9175C39.974 57.2125 39.934 60.676 39.934 61.7305C39.934 62.59 40.51 63.59 42.134 63.2745C54.84 59.017 64 46.9835 64 32.7955C64 15.0495 49.672 0.666496 31.998 0.666496Z" fill="#EEEEEE"/>
</svg>
