<svg width="64" height="64" viewBox="0 0 64 64" fill="none" xmlns="http://www.w3.org/2000/svg">
<path fill-rule="evenodd" clip-rule="evenodd" d="M52.9215 14.9185C52.9215 17.0395 51.202 18.7585 49.0815 18.7585C46.961 18.7585 45.2415 17.0395 45.2415 14.9185C45.2415 12.7975 46.961 11.0785 49.0815 11.0785C51.2025 11.0785 52.9215 12.7975 52.9215 14.9185ZM32 42.6665C26.109 42.6665 21.3335 37.891 21.3335 32C21.3335 26.109 26.109 21.3335 32 21.3335C37.891 21.3335 42.6665 26.109 42.6665 32C42.6665 37.891 37.891 42.6665 32 42.6665ZM32 15.5675C22.9245 15.5675 15.5675 22.9245 15.5675 32C15.5675 41.0755 22.9245 48.4325 32 48.4325C41.0755 48.4325 48.4325 41.0755 48.4325 32C48.4325 22.9245 41.0755 15.5675 32 15.5675ZM32 5.766C40.5445 5.766 41.5565 5.7985 44.9305 5.9525C48.0505 6.095 49.745 6.616 50.8725 7.0545C52.366 7.635 53.432 8.3285 54.552 9.4485C55.672 10.568 56.3655 11.634 56.946 13.128C57.384 14.2555 57.9055 15.95 58.048 19.07C58.202 22.4445 58.2345 23.4565 58.2345 32.001C58.2345 40.5455 58.202 41.5575 58.048 44.9315C57.9055 48.0515 57.3845 49.746 56.946 50.8735C56.3655 52.367 55.672 53.433 54.552 54.553C53.4325 55.673 52.3665 56.3665 50.8725 56.947C49.745 57.385 48.0505 57.9065 44.9305 58.049C41.5565 58.203 40.5445 58.2355 32 58.2355C23.455 58.2355 22.443 58.203 19.069 58.049C15.949 57.9065 14.2545 57.3855 13.127 56.947C11.6335 56.3665 10.5675 55.673 9.4475 54.553C8.328 53.4335 7.634 52.3675 7.0535 50.8735C6.6155 49.746 6.094 48.0515 5.9515 44.9315C5.7975 41.557 5.765 40.545 5.765 32.001C5.765 23.4565 5.7975 22.4445 5.9515 19.07C6.094 15.95 6.615 14.2555 7.0535 13.128C7.634 11.6345 8.3275 10.5685 9.4475 9.4485C10.567 8.3285 11.633 7.635 13.127 7.0545C14.2545 6.6165 15.949 6.095 19.069 5.9525C22.4435 5.7985 23.4555 5.766 32 5.766ZM32 0C23.3095 0 22.2195 0.037 18.8065 0.1925C15.4005 0.348 13.074 0.889 11.039 1.68C8.9345 2.4975 7.15 3.592 5.371 5.371C3.592 7.15 2.4975 8.9345 1.68 11.039C0.889 13.0745 0.348 15.4005 0.1925 18.8065C0.037 22.2195 0 23.3095 0 32C0 40.6905 0.037 41.7805 0.1925 45.1935C0.348 48.5995 0.889 50.9255 1.68 52.961C2.4975 55.0655 3.592 56.85 5.371 58.629C7.15 60.408 8.9345 61.502 11.039 62.32C13.0745 63.111 15.4005 63.652 18.8065 63.8075C22.2195 63.963 23.3095 64 32 64C40.6905 64 41.7805 63.963 45.1935 63.8075C48.5995 63.652 50.9255 63.111 52.961 62.32C55.0655 61.502 56.85 60.408 58.629 58.629C60.408 56.85 61.502 55.0655 62.32 52.961C63.111 50.9255 63.652 48.5995 63.8075 45.1935C63.963 41.7805 64 40.6905 64 32C64 23.3095 63.963 22.2195 63.8075 18.8065C63.652 15.4005 63.111 13.0745 62.32 11.039C61.502 8.9345 60.408 7.15 58.629 5.371C56.85 3.592 55.0655 2.498 52.961 1.68C50.9255 0.889 48.5995 0.348 45.1935 0.1925C41.7805 0.037 40.6905 0 32 0Z" fill="#EEEEEE"/>
</svg>
