<svg width="64" height="64" viewBox="0 0 64 64" fill="none" xmlns="http://www.w3.org/2000/svg">
<path fill-rule="evenodd" clip-rule="evenodd" d="M1.6145 21.5665H14.0885V61.091H1.6145V21.5665ZM7.5335 16.623H7.443C2.9275 16.623 0 13.6015 0 9.7715C0 5.867 3.014 2.909 7.62 2.909C12.222 2.909 15.052 5.8595 15.142 9.7605C15.142 13.59 12.222 16.623 7.5335 16.623ZM64 61.091H49.855V40.6375C49.855 35.284 47.6425 31.629 42.777 31.629C39.0555 31.629 36.986 34.0955 36.0225 36.472C35.6615 37.325 35.7175 38.5135 35.7175 39.702V61.0905H21.7045C21.7045 61.0905 21.885 24.8595 21.7045 21.566H35.7175V27.769C36.5455 25.057 41.023 21.186 48.169 21.186C57.0345 21.186 63.9995 26.871 63.9995 39.1135V61.091H64Z" fill="#EEEEEE"/>
</svg>
